<svg xmlns="http://www.w3.org/2000/svg" version="1.1" xmlns:xlink="http://www.w3.org/1999/xlink" width="1000" height="1000"><style>
    #light-icon {
      display: inline;
    }
    #dark-icon {
      display: none;
    }

    @media (prefers-color-scheme: dark) {
      #light-icon {
        display: none;
      }
      #dark-icon {
        display: inline;
      }
    }
  </style><g id="light-icon"><svg xmlns="http://www.w3.org/2000/svg" version="1.1" xmlns:xlink="http://www.w3.org/1999/xlink" width="1000" height="1000"><g><g transform="matrix(1.953125,0,0,1.953125,0,0)"><svg xmlns="http://www.w3.org/2000/svg" version="1.1" xmlns:xlink="http://www.w3.org/1999/xlink" width="512" height="512"><svg id="Layer_1" xmlns="http://www.w3.org/2000/svg" version="1.1" viewBox="0 0 512 512">
  <!-- Generator: Adobe Illustrator 29.5.1, SVG Export Plug-In . SVG Version: 2.1.0 Build 141)  -->
  <defs>
    <style>
      .st0 {
        fill: #581845;
        stroke: #581845;
      }
    </style>
  </defs>
  <path class="st0" d="M505.8,245.4c0-1.6-.1-3.3-.3-4.9,0-1.1-.2-2.1-.2-3.1v-1.1c-.5-4.9-.9-9.2-1.5-13.2-7.3-54.5-32.2-105-71-143.9C393.4,39.8,342.1,14.8,286.9,7.9c-55.2-6.9-111.1,4.9-158.9,33.4-47.8,28.5-84.7,72.1-104.9,123.9C2.9,217,.5,274.1,16.4,327.4c15.9,53.3,49.1,99.8,94.4,132.1,45.3,32.3,100,48.6,155.6,46.3,55.6-2.3,108.8-23.1,151.3-59,42.4-35.9,71.7-85,83.1-139.4,3.2-15.8,5-31.8,5.2-47.9v-1.6c0-.6,0-1.2,0-1.8,0-3.5,0-7.1-.2-10.6ZM404.4,403.8c-7.2-.2-14.2-2.3-20.4-6.1-11.8-7.3-21.7-17.3-28.9-29.2-7.2-11.9-11.5-25.3-12.5-39.1-.1-7.1,1.6-14.1,5.1-20.3,8.2-14.4,28.3-23.4,52.3-23.4h0c14.8-.2,29.5,3.4,42.5,10.4,6.1,2.9,11.1,7.5,14.7,13.2,3.5,5.7,5.3,12.3,5.2,19-.8,14.1-5.2,27.7-12.8,39.6-7.7,13.4-23.8,35.8-45.4,35.8ZM256,479.9c-38.9-.2-58.7-14.4-58.7-42.1.7-18.6,7-36.5,18.2-51.3,4.4-6.9,10.3-12.7,17.3-17,7-4.2,14.9-6.8,23.1-7.5,8.2.7,16,3.3,23,7.5,7,4.2,12.9,10,17.3,16.9,11.2,14.8,17.6,32.7,18.3,51.2,0,27.7-19.8,41.9-58.6,42.1ZM61.9,368c-7.6-11.9-12-25.5-12.8-39.5-.1-6.7,1.7-13.4,5.3-19.1,3.5-5.7,8.6-10.3,14.7-13.2,13-7,27.7-10.6,42.5-10.5h0c24,0,44.1,9,52.4,23.4,3.4,6.2,5.2,13.2,5,20.3-1,13.8-5.3,27.2-12.4,39.1-7.2,11.9-17.1,21.9-28.8,29.2-6.2,3.8-13.3,6-20.5,6.1-21.5,0-37.6-22.5-45.4-35.9ZM107.3,108.2h.1c7.2.2,14.3,2.3,20.4,6.1,11.8,7.3,21.7,17.3,28.8,29.2,7.2,11.9,11.4,25.3,12.4,39.1.1,7.1-1.6,14.1-5.1,20.3-8.3,14.4-28.3,23.4-52.4,23.4-14.8.2-29.5-3.4-42.5-10.5-6.1-2.9-11.2-7.5-14.7-13.2-3.5-5.7-5.4-12.3-5.3-19.1.8-14.1,5.2-27.7,12.8-39.6,7.7-13.4,23.9-35.8,45.3-35.8ZM255.9,32.1c38.9.2,58.6,14.4,58.7,42.1-.7,18.6-7.1,36.4-18.3,51.3-3.9,7.4-9.7,13.6-16.8,17.9-7.1,4.3-15.3,6.6-23.6,6.6s-16.5-2.3-23.6-6.6c-7.1-4.3-12.9-10.5-16.8-17.9-11.2-14.8-17.6-32.7-18.2-51.2,0-27.7,19.8-41.9,58.7-42.1ZM404.5,108.2c21.4,0,37.6,22.5,45.4,35.9,7.6,11.9,12,25.5,12.8,39.5.1,6.7-1.7,13.3-5.2,19.1-3.5,5.7-8.6,10.3-14.7,13.2-13.1,7-27.7,10.6-42.6,10.5-24,0-44-8.9-52.3-23.4-3.5-6.2-5.2-13.2-5.1-20.4,1-13.8,5.3-27.3,12.5-39.2,7.2-11.9,17.1-21.9,28.9-29.2,6.1-3.8,13.2-5.9,20.4-6.1h.1ZM255.9,310.8c-10.8,0-21.4-3.2-30.5-9.2-9-6-16.1-14.6-20.2-24.6-4.2-10-5.2-21-3.1-31.7,2.1-10.6,7.3-20.4,15-28.1,7.7-7.7,17.4-12.9,28.1-15s21.7-1,31.7,3.1c10,4.1,18.6,11.2,24.6,20.2,6,9,9.2,19.6,9.2,30.5,0,14.5-5.8,28.4-16.1,38.7-10.3,10.3-24.2,16-38.7,16.1h0Z"></path>
</svg></svg></g></g></svg></g><g id="dark-icon"><svg xmlns="http://www.w3.org/2000/svg" version="1.1" xmlns:xlink="http://www.w3.org/1999/xlink" width="1000" height="1000"><g clip-path="url(#SvgjsClipPath1041)"><rect width="1000" height="1000" fill="#eaeaea"></rect><g transform="matrix(1.3671875,0,0,1.3671875,150,150)"><svg xmlns="http://www.w3.org/2000/svg" version="1.1" xmlns:xlink="http://www.w3.org/1999/xlink" width="512" height="512"><svg id="Layer_1" xmlns="http://www.w3.org/2000/svg" version="1.1" viewBox="0 0 512 512">
  <!-- Generator: Adobe Illustrator 29.5.1, SVG Export Plug-In . SVG Version: 2.1.0 Build 141)  -->
  <defs>
    <style>
      .st0 {
        fill: #581845;
        stroke: #581845;
      }
    </style>
  <clipPath id="SvgjsClipPath1041"><rect width="1000" height="1000" x="0" y="0" rx="500" ry="500"></rect></clipPath></defs>
  <path class="st0" d="M505.8,245.4c0-1.6-.1-3.3-.3-4.9,0-1.1-.2-2.1-.2-3.1v-1.1c-.5-4.9-.9-9.2-1.5-13.2-7.3-54.5-32.2-105-71-143.9C393.4,39.8,342.1,14.8,286.9,7.9c-55.2-6.9-111.1,4.9-158.9,33.4-47.8,28.5-84.7,72.1-104.9,123.9C2.9,217,.5,274.1,16.4,327.4c15.9,53.3,49.1,99.8,94.4,132.1,45.3,32.3,100,48.6,155.6,46.3,55.6-2.3,108.8-23.1,151.3-59,42.4-35.9,71.7-85,83.1-139.4,3.2-15.8,5-31.8,5.2-47.9v-1.6c0-.6,0-1.2,0-1.8,0-3.5,0-7.1-.2-10.6ZM404.4,403.8c-7.2-.2-14.2-2.3-20.4-6.1-11.8-7.3-21.7-17.3-28.9-29.2-7.2-11.9-11.5-25.3-12.5-39.1-.1-7.1,1.6-14.1,5.1-20.3,8.2-14.4,28.3-23.4,52.3-23.4h0c14.8-.2,29.5,3.4,42.5,10.4,6.1,2.9,11.1,7.5,14.7,13.2,3.5,5.7,5.3,12.3,5.2,19-.8,14.1-5.2,27.7-12.8,39.6-7.7,13.4-23.8,35.8-45.4,35.8ZM256,479.9c-38.9-.2-58.7-14.4-58.7-42.1.7-18.6,7-36.5,18.2-51.3,4.4-6.9,10.3-12.7,17.3-17,7-4.2,14.9-6.8,23.1-7.5,8.2.7,16,3.3,23,7.5,7,4.2,12.9,10,17.3,16.9,11.2,14.8,17.6,32.7,18.3,51.2,0,27.7-19.8,41.9-58.6,42.1ZM61.9,368c-7.6-11.9-12-25.5-12.8-39.5-.1-6.7,1.7-13.4,5.3-19.1,3.5-5.7,8.6-10.3,14.7-13.2,13-7,27.7-10.6,42.5-10.5h0c24,0,44.1,9,52.4,23.4,3.4,6.2,5.2,13.2,5,20.3-1,13.8-5.3,27.2-12.4,39.1-7.2,11.9-17.1,21.9-28.8,29.2-6.2,3.8-13.3,6-20.5,6.1-21.5,0-37.6-22.5-45.4-35.9ZM107.3,108.2h.1c7.2.2,14.3,2.3,20.4,6.1,11.8,7.3,21.7,17.3,28.8,29.2,7.2,11.9,11.4,25.3,12.4,39.1.1,7.1-1.6,14.1-5.1,20.3-8.3,14.4-28.3,23.4-52.4,23.4-14.8.2-29.5-3.4-42.5-10.5-6.1-2.9-11.2-7.5-14.7-13.2-3.5-5.7-5.4-12.3-5.3-19.1.8-14.1,5.2-27.7,12.8-39.6,7.7-13.4,23.9-35.8,45.3-35.8ZM255.9,32.1c38.9.2,58.6,14.4,58.7,42.1-.7,18.6-7.1,36.4-18.3,51.3-3.9,7.4-9.7,13.6-16.8,17.9-7.1,4.3-15.3,6.6-23.6,6.6s-16.5-2.3-23.6-6.6c-7.1-4.3-12.9-10.5-16.8-17.9-11.2-14.8-17.6-32.7-18.2-51.2,0-27.7,19.8-41.9,58.7-42.1ZM404.5,108.2c21.4,0,37.6,22.5,45.4,35.9,7.6,11.9,12,25.5,12.8,39.5.1,6.7-1.7,13.3-5.2,19.1-3.5,5.7-8.6,10.3-14.7,13.2-13.1,7-27.7,10.6-42.6,10.5-24,0-44-8.9-52.3-23.4-3.5-6.2-5.2-13.2-5.1-20.4,1-13.8,5.3-27.3,12.5-39.2,7.2-11.9,17.1-21.9,28.9-29.2,6.1-3.8,13.2-5.9,20.4-6.1h.1ZM255.9,310.8c-10.8,0-21.4-3.2-30.5-9.2-9-6-16.1-14.6-20.2-24.6-4.2-10-5.2-21-3.1-31.7,2.1-10.6,7.3-20.4,15-28.1,7.7-7.7,17.4-12.9,28.1-15s21.7-1,31.7,3.1c10,4.1,18.6,11.2,24.6,20.2,6,9,9.2,19.6,9.2,30.5,0,14.5-5.8,28.4-16.1,38.7-10.3,10.3-24.2,16-38.7,16.1h0Z"></path>
</svg></svg></g></g></svg></g></svg>