<?xml version="1.0" encoding="UTF-8"?>
<svg id="Layer_1" xmlns="http://www.w3.org/2000/svg" version="1.1" viewBox="0 0 512 246">
  <!-- Generator: Adobe Illustrator 29.5.1, SVG Export Plug-In . SVG Version: 2.1.0 Build 141)  -->
  <defs>
    <style>
      .st0 {
        fill: #581845;
      }

      .st1 {
        fill: none;
        stroke: #581845;
        stroke-miterlimit: 1;
      }

      .st2 {
        fill: #eaeaea;
      }
    </style>
  </defs>
  <path class="st0" d="M222.8,43.3c.8,1.2,1.3,3,1.3,5.5s0,4.4-.3,6c-.1,1.5-.4,3-.7,4.4-.7,3.2-1.7,5.6-2.9,7.2-1.1-5.6-2.5-9.6-4.2-12-1.8-2.4-4.2-3.7-7.1-3.7s-5.1.6-6.8,1.7c-1.6,1.1-2.9,2.6-3.8,4.4-1.5,3-2.2,7.4-2.2,13.3s.7,11.2,2,16c1.3,4.8,3.2,9,5.7,12.5,5.1,7.4,11.9,11.1,20.1,11.1-.1,1.3-.8,2.4-2.1,3.4-.4.3-.8.5-1.2.5-10.6,0-19.2-3.9-25.8-11.7-7.1-8.3-10.6-19.5-10.6-33.8s2.2-13,6.5-16.8c3.9-3.3,9.2-5,15.9-5h7.3c3.4,0,5.8-.4,7.2-1.4.6-.4,1.1-1,1.6-1.7ZM248.8,46.3c-1.1,2.7-1.7,5.4-1.9,8.2-.2,2.7-.3,5-.4,7,0,1.9-.2,4-.2,6.1,0,4.9-.1,9.3-.1,13.4,0,16.5.6,26.6,1.8,30.3.2.6.5,1.3.8,1.9h-15.1c.9-2,1.4-3.8,1.6-5.4.2-1.6.3-3.5.5-5.7.3-4.6.5-9.8.5-15.8s0-10,0-12.2c0-2.2,0-4.4-.1-6.5-.2-10.2-.8-16.7-1.8-19.5l-.6-1.7h15.1ZM271.4,65.6c0,3,0,6.5,0,10.3,0,5.5.1,11.8.3,18.9.2,7.1.4,11.1.5,12.1.1,1,.3,1.8.4,2.5.3,1.2.7,2.4,1.4,3.7h-11.7c.9-1.8,1.4-3.5,1.6-5.2.2-1.7.4-3.4.5-5.1.2-3.4.3-8,.3-13.8s-.1-13.4-.3-19.2l-.5-12c-.2-4.4-.9-7.6-2.1-9.4-.5-.7-1.1-1.4-1.8-2h13.6c1.7,4,3.5,7.9,5.5,11.8l5.9,11.6,12.7,23.4c0-1.8,0-3.8,0-5.9v-6.8c0-14.5-.9-25.1-2.7-31.5-.4-1.2-.7-2.1-1.1-2.6h13.1c-1.5,2.9-2.4,11.1-2.7,24.5,0,2.1,0,4.1,0,6v3.7s0,17.8,0,17.8c0,7.5,0,12.5.2,14.8h-7.1l-12.7-23.6-13.2-24ZM350.7,97c.8,1.1,1.2,2.6,1.2,4.7s0,3.7-.3,4.9c-.2,1.2-.4,2.3-.8,3.3-.9,2.2-2,3.3-3.4,3.3h-35.4c2.2-1.2,3.7-2.3,4.5-3.4,1.4-2.1,2.1-4.7,2.1-7.9,0-7.8,0-14.8,0-21.1v-23c0-4.3-.7-7.5-2.1-9.4-.5-.7-1.1-1.4-1.9-2h32.8c2,.7,3.3,3.1,4.1,7.3.2,1.2.3,2.3.3,3.4,0,2.3-.3,4.1-1,5.4l-2.4-4.7c-1.6-3.1-3.8-5.2-6.8-6.2-1.6-.6-3.5-.9-5.5-.9s-3.5,0-4.4.2c-.9.1-1.5.4-2,.9-.8.8-1.1,2.5-1.1,4.8s0,4,.2,4.9c.1.9.4,1.6.8,2.2.9,1.1,2.8,1.7,5.7,1.7h13.7c-.7,1.7-1.4,2.9-2.1,3.6-1.4,1.4-3.3,2.1-5.7,2.1s-1.8-.1-2.7-.3c-1.6-.4-3-.6-4.1-.6s-2.2.1-3,.3c-.8.2-1.4.5-1.8,1-.8.8-1.1,2.3-1.1,4.4v20.8c0,5.5.3,8.7.9,9.7.6,1,1.4,1.6,2.2,1.8.9.2,2.3.3,4.4.3s3.9-.3,5.5-.9,3-1.4,4.1-2.4c1.1-1,2.1-2.3,2.8-3.7.7-1.5,1.4-3,2.1-4.8ZM369.3,61.5c-.1,4.2-.2,8.6-.2,13.2s.1,12.9.3,20c.2,7.2.3,11.2.4,12.2.1,1,.3,1.8.4,2.5.3,1.3.8,2.6,1.6,3.7h-12.2c1.1-1.6,1.8-3.3,2-5.1.2-1.8.4-3.5.5-5.2.2-3.4.3-8,.3-13.8s-.1-13.4-.3-19.2l-.5-12c-.2-4.4-.9-7.6-2.1-9.4-.5-.7-1.1-1.4-1.8-2h17.1c1.1,5,2.5,10.3,4.2,15.8l7.9,25.4,12.2-41.2h17c-1.4,1.3-2.4,2.5-2.8,3.8-.6,2-1,4.3-1.1,7l-.3,7.7c-.4,9-.6,17.1-.6,24.1,0,11.8.5,19.2,1.6,22.4.2.6.5,1.2.8,1.7h-13.7c.8-1.5,1.2-3.2,1.3-5,.1-1.8.2-4.3.3-7.4.3-10.3.5-17.9.5-22.6,0-7.8,0-13.5-.2-17.3l-16.1,52.3-8.5-26.8-8.2-24.8ZM454.5,113.1c.4-1.8.6-3.3.6-4.4s0-1.9,0-2.5c0-.6,0-1.1-.2-1.7,0-.6-.1-1.3-.3-2.1,0-.8-.2-1.7-.3-2.7-.7-7-3-12.7-7.1-17.2-1.8-2-3.8-3.5-5.8-4.5-2.1-1-3.8-1.6-5.2-1.6s-2.4,0-3.1.3c-1.6,4.9-2.4,10-2.4,15.3s.2,8.2.7,10.6c.8,3.5,2,7,3.6,10.5h-13.1c.7-1.7,1-5.4,1-11s.4-10.9,1.3-15.7c.8-4.9,1.9-9.2,3.3-13,1.4-3.8,2.9-7.1,4.5-10,1.7-2.9,3.4-5.4,5-7.5,1.7-2.2,3.3-4,4.8-5.5,1.5-1.5,2.7-2.9,3.7-4.1h13.7c-1.3,1.4-1.9,3.4-1.9,6s.2,3.1.6,5.7l1.1,7.9c4,27.5,7.6,43.2,10.7,47.1h-15.2ZM434.9,72.1c1.1-.4,2.3-.7,3.6-.7s2.4,0,3.4.3c1,.2,2,.5,3,.9,2.1.8,3.9,2.1,5.3,3.9-1.4-7.5-2.3-12-2.6-13.7l-1.5-7.6-2.5,3c-3.5,4.2-6.4,8.9-8.6,14ZM244.8,155c0,3,0,6.5,0,10.3,0,5.5.1,11.8.3,18.9.2,7.1.4,11.1.5,12.1.1,1,.3,1.8.4,2.5.3,1.2.7,2.4,1.4,3.7h-11.7c.9-1.8,1.4-3.5,1.6-5.2.2-1.7.4-3.4.5-5.1.2-3.4.3-8,.3-13.8s-.1-13.4-.3-19.2l-.5-12c-.2-4.4-.9-7.6-2.1-9.4-.5-.7-1.1-1.4-1.8-2h13.6c1.7,4,3.5,7.9,5.5,11.8l5.9,11.6,12.7,23.4c0-1.8,0-3.8,0-5.9v-6.8c0-14.5-.9-25.1-2.7-31.5-.3-1.2-.7-2.1-1.1-2.6h13.1c-1.5,2.9-2.4,11.1-2.7,24.5,0,2.1,0,4.1,0,6v3.7s0,17.8,0,17.8c0,7.5,0,12.5.2,14.8h-7.1l-12.7-23.6-13.2-24ZM313.3,199c5.6,0,9.2-6.8,10.8-20.4.6-4.6.8-10,.8-16.2,0-15.4-3.9-23.1-11.7-23.1s-11.7,7.7-11.7,23.1,2.3,29.7,7,34.4c1.5,1.5,3.1,2.2,4.8,2.2ZM313.2,203.4c-7.7,0-13.6-3.6-17.5-10.9-3.8-7-5.7-17.1-5.7-30.1s4.2-22.1,12.5-25.7c2.9-1.2,6.5-1.8,10.7-1.8,11.9,0,19.2,5.3,21.9,15.9.9,3.4,1.3,7.8,1.3,13.1s-.5,10.6-1.4,15.7c-.9,5.1-2.4,9.4-4.3,12.9-3.9,7.3-9.8,10.9-17.5,10.9ZM364.1,135.7c-1.1,2.7-1.7,5.4-1.9,8.2-.2,2.7-.3,5-.4,7,0,1.9-.2,4-.2,6.1,0,4.9-.1,9.3-.1,13.4,0,16.5.6,26.6,1.8,30.3.2.6.5,1.3.8,1.9h-15.1c.9-2,1.4-3.8,1.6-5.4s.3-3.5.5-5.7c.3-4.6.5-9.8.5-15.8s0-10,0-12.2c0-2.2,0-4.4-.1-6.5-.2-10.2-.8-16.7-1.8-19.5l-.6-1.7h15.1ZM394.6,161c-3.4,0-5.1,2-5.1,6,0,16.5.3,26.3.8,29.2.3,1.8.7,3.1,1.2,4l1.3,2.3h-15.5c.9-2.2,1.5-4.1,1.6-5.5.2-1.5.3-3.1.4-4.8.2-3.4.3-8,.3-13.8s-.1-13.4-.3-19.2l-.5-12c-.1-3-.4-5.1-.8-6.3-.6-1.9-1.7-3.6-3.1-5.1h23.1c7,0,12.1.7,15.3,2.1,3.3,1.5,5,3.9,5,7.5s-1.2,6-3.4,8.7c-2.2,2.5-5,4.5-8.5,6,.4,11.2,3.9,21.9,10.5,32.2,2.8,4.5,5.7,7.9,8.6,10.4h-16.4c-2.9-3.9-5.5-11.8-7.9-23.7-.8-4.1-1.4-7.6-1.6-10.3-.2-2.7-.4-4.4-.6-4.9-.1-.6-.4-1-.7-1.4-.7-.8-2-1.1-3.8-1.1ZM404.7,153.3c.8-.9,1.4-1.8,1.7-2.8.3-1,.5-1.9.5-2.8s-.1-1.8-.4-2.7c-.2-.9-.7-1.7-1.4-2.4-1.6-1.6-4.4-2.4-8.4-2.4s-2.7,0-3.6.2c-.9.1-1.6.4-2.1,1-.9.9-1.4,3.1-1.4,6.7s.3,5.2,1,6c1.2,1.5,3,2.3,5.4,2.3s4.3-.3,5.5-.8c1.3-.6,2.4-1.3,3.1-2.1Z"/>
  <rect class="st0" x="29.7" y="5.5" width="122.9" height="235"/>
  <rect class="st2" x="40.9" y="20.9" width="8.4" height="8.4"/>
  <rect class="st2" x="40.9" y="99.1" width="8.4" height="8.4"/>
  <rect class="st2" x="40.9" y="79.6" width="8.4" height="8.4"/>
  <rect class="st2" x="40.9" y="60" width="8.4" height="8.4"/>
  <rect class="st2" x="40.9" y="40.5" width="8.4" height="8.4"/>
  <rect class="st2" x="40.9" y="118.7" width="8.4" height="8.4"/>
  <rect class="st2" x="40.9" y="138.2" width="8.4" height="8.4"/>
  <rect class="st2" x="40.9" y="157.8" width="8.4" height="8.4"/>
  <rect class="st2" x="40.9" y="177.4" width="8.4" height="8.4"/>
  <rect class="st2" x="40.9" y="196.9" width="8.4" height="8.4"/>
  <rect class="st2" x="40.9" y="216.5" width="8.4" height="8.4"/>
  <rect class="st2" x="133.1" y="20.9" width="8.4" height="8.4"/>
  <rect class="st2" x="133.1" y="99.1" width="8.4" height="8.4"/>
  <rect class="st2" x="133.1" y="79.6" width="8.4" height="8.4"/>
  <rect class="st2" x="133.1" y="60" width="8.4" height="8.4"/>
  <rect class="st2" x="133.1" y="40.5" width="8.4" height="8.4"/>
  <rect class="st2" x="133.1" y="118.7" width="8.4" height="8.4"/>
  <rect class="st2" x="133.1" y="138.2" width="8.4" height="8.4"/>
  <rect class="st2" x="133.1" y="157.8" width="8.4" height="8.4"/>
  <rect class="st2" x="133.1" y="177.4" width="8.4" height="8.4"/>
  <rect class="st2" x="133.1" y="196.9" width="8.4" height="8.4"/>
  <rect class="st2" x="133.1" y="216.5" width="8.4" height="8.4"/>
  <ellipse class="st0" cx="91.2" cy="62.8" rx="55.9" ry="39.1"/>
  <ellipse class="st2" cx="91.2" cy="62.8" rx="50.3" ry="36.3"/>
  <ellipse class="st0" cx="92.6" cy="62.8" rx="7" ry="5.6"/>
  <path class="st0" d="M103.8,39.1c0,5.6-7,11.2-12.6,11.2s-11.2-8.4-11.2-11.2,1.4-7,11.2-7,12.6,4.2,12.6,7Z"/>
  <path class="st0" d="M80,88c0-5.6,7-11.2,12.6-11.2s11.2,8.4,11.2,11.2-1.4,7-11.2,7-12.6-4.2-12.6-7Z"/>
  <path class="st0" d="M122.8,59.3c-5,2.1-17.6-.7-17.6-6.3s4.2-11.2,7-12.6,9.8-1.4,14,5.6c4.2,7,0,11.8-3.3,13.2Z"/>
  <path class="st0" d="M60,58.2c5,2.1,17.6-.7,17.6-6.3s-4.2-11.2-7-12.6-9.8-1.4-14,5.6c-4.2,7,0,11.8,3.3,13.2Z"/>
  <path class="st0" d="M116.3,85.2c-5.6,0-12.6-7-11.2-12.6s8.4-8.4,12.6-8.4,9.8,0,11.2,8.4-8.9,12.6-12.6,12.6Z"/>
  <path class="st0" d="M68.7,85.4c5.6,0,12.6-7,11.2-12.6s-8.4-8.4-12.6-8.4-9.8,0-11.2,8.4,8.9,12.6,12.6,12.6Z"/>
  <rect class="st1" x="6" y="5.6" width="500" height="234.6"/>
</svg>